<svg id="visual" viewBox="0 0 960 300" width="960" height="300" xmlns="http://www.w3.org/2000/svg" xmlns:xlink="http://www.w3.org/1999/xlink" version="1.1"><rect x="0" y="0" width="960" height="300" fill="#202731"></rect><path d="M0 244L20 232.7C40 221.3 80 198.7 120 192C160 185.3 200 194.7 240 203.2C280 211.7 320 219.3 360 218.2C400 217 440 207 480 198.8C520 190.7 560 184.3 600 189.7C640 195 680 212 720 217.8C760 223.7 800 218.3 840 219C880 219.7 920 226.3 940 229.7L960 233L960 0L940 0C920 0 880 0 840 0C800 0 760 0 720 0C680 0 640 0 600 0C560 0 520 0 480 0C440 0 400 0 360 0C320 0 280 0 240 0C200 0 160 0 120 0C80 0 40 0 20 0L0 0Z" fill="#ff6f61"></path><path d="M0 138L20 145.5C40 153 80 168 120 170.5C160 173 200 163 240 155.5C280 148 320 143 360 140.5C400 138 440 138 480 142C520 146 560 154 600 155.5C640 157 680 152 720 155.8C760 159.7 800 172.3 840 179.8C880 187.3 920 189.7 940 190.8L960 192L960 0L940 0C920 0 880 0 840 0C800 0 760 0 720 0C680 0 640 0 600 0C560 0 520 0 480 0C440 0 400 0 360 0C320 0 280 0 240 0C200 0 160 0 120 0C80 0 40 0 20 0L0 0Z" fill="#f76455"></path><path d="M0 120L20 125C40 130 80 140 120 139.2C160 138.3 200 126.7 240 127.3C280 128 320 141 360 144.7C400 148.3 440 142.7 480 135C520 127.3 560 117.7 600 118.3C640 119 680 130 720 137.5C760 145 800 149 840 149.7C880 150.3 920 147.7 940 146.3L960 145L960 0L940 0C920 0 880 0 840 0C800 0 760 0 720 0C680 0 640 0 600 0C560 0 520 0 480 0C440 0 400 0 360 0C320 0 280 0 240 0C200 0 160 0 120 0C80 0 40 0 20 0L0 0Z" fill="#ee5849"></path><path d="M0 94L20 96.7C40 99.3 80 104.7 120 103C160 101.3 200 92.7 240 86.5C280 80.3 320 76.7 360 74.8C400 73 440 73 480 77.7C520 82.3 560 91.7 600 92.8C640 94 680 87 720 83C760 79 800 78 840 78.7C880 79.3 920 81.7 940 82.8L960 84L960 0L940 0C920 0 880 0 840 0C800 0 760 0 720 0C680 0 640 0 600 0C560 0 520 0 480 0C440 0 400 0 360 0C320 0 280 0 240 0C200 0 160 0 120 0C80 0 40 0 20 0L0 0Z" fill="#e64c3d"></path><path d="M0 50L20 49.2C40 48.3 80 46.7 120 48.5C160 50.3 200 55.7 240 53C280 50.3 320 39.7 360 39.3C400 39 440 49 480 55.3C520 61.7 560 64.3 600 64.3C640 64.3 680 61.7 720 61.7C760 61.7 800 64.3 840 63.2C880 62 920 57 940 54.5L960 52L960 0L940 0C920 0 880 0 840 0C800 0 760 0 720 0C680 0 640 0 600 0C560 0 520 0 480 0C440 0 400 0 360 0C320 0 280 0 240 0C200 0 160 0 120 0C80 0 40 0 20 0L0 0Z" fill="#dd3f31"></path></svg>