<svg id="visual" viewBox="0 0 960 300" width="960" height="300" xmlns="http://www.w3.org/2000/svg" xmlns:xlink="http://www.w3.org/1999/xlink" version="1.1"><rect x="0" y="0" width="960" height="300" fill="#202731"></rect><path d="M0 80L20 81.2C40 82.3 80 84.7 120 86.5C160 88.3 200 89.7 240 94C280 98.3 320 105.7 360 107.5C400 109.3 440 105.7 480 101C520 96.3 560 90.7 600 92.3C640 94 680 103 720 108.8C760 114.7 800 117.3 840 110.5C880 103.7 920 87.3 940 79.2L960 71L960 301L940 301C920 301 880 301 840 301C800 301 760 301 720 301C680 301 640 301 600 301C560 301 520 301 480 301C440 301 400 301 360 301C320 301 280 301 240 301C200 301 160 301 120 301C80 301 40 301 20 301L0 301Z" fill="#ff749e"></path><path d="M0 153L20 153.3C40 153.7 80 154.3 120 154.3C160 154.3 200 153.7 240 144.2C280 134.7 320 116.3 360 113.3C400 110.3 440 122.7 480 130.8C520 139 560 143 600 139.8C640 136.7 680 126.3 720 126C760 125.7 800 135.3 840 138.7C880 142 920 139 940 137.5L960 136L960 301L940 301C920 301 880 301 840 301C800 301 760 301 720 301C680 301 640 301 600 301C560 301 520 301 480 301C440 301 400 301 360 301C320 301 280 301 240 301C200 301 160 301 120 301C80 301 40 301 20 301L0 301Z" fill="#ff4e83"></path><path d="M0 189L20 189.3C40 189.7 80 190.3 120 191.3C160 192.3 200 193.7 240 192.3C280 191 320 187 360 180.8C400 174.7 440 166.3 480 166.2C520 166 560 174 600 174.8C640 175.7 680 169.3 720 166.2C760 163 800 163 840 162.2C880 161.3 920 159.7 940 158.8L960 158L960 301L940 301C920 301 880 301 840 301C800 301 760 301 720 301C680 301 640 301 600 301C560 301 520 301 480 301C440 301 400 301 360 301C320 301 280 301 240 301C200 301 160 301 120 301C80 301 40 301 20 301L0 301Z" fill="#ff0066"></path><path d="M0 190L20 196.8C40 203.7 80 217.3 120 224C160 230.7 200 230.3 240 225.3C280 220.3 320 210.7 360 203.2C400 195.7 440 190.3 480 194C520 197.7 560 210.3 600 213.7C640 217 680 211 720 208.8C760 206.7 800 208.3 840 212C880 215.7 920 221.3 940 224.2L960 227L960 301L940 301C920 301 880 301 840 301C800 301 760 301 720 301C680 301 640 301 600 301C560 301 520 301 480 301C440 301 400 301 360 301C320 301 280 301 240 301C200 301 160 301 120 301C80 301 40 301 20 301L0 301Z" fill="#dd005a"></path><path d="M0 232L20 237.8C40 243.7 80 255.3 120 261.2C160 267 200 267 240 261.5C280 256 320 245 360 241.7C400 238.3 440 242.7 480 245C520 247.3 560 247.7 600 249.3C640 251 680 254 720 255.8C760 257.7 800 258.3 840 259.5C880 260.7 920 262.3 940 263.2L960 264L960 301L940 301C920 301 880 301 840 301C800 301 760 301 720 301C680 301 640 301 600 301C560 301 520 301 480 301C440 301 400 301 360 301C320 301 280 301 240 301C200 301 160 301 120 301C80 301 40 301 20 301L0 301Z" fill="#bb004d"></path></svg>